<?xml version="1.0" standalone="no"?>
<!DOCTYPE svg PUBLIC "-//W3C//DTD SVG 20010904//EN"
 "http://www.w3.org/TR/2001/REC-SVG-20010904/DTD/svg10.dtd">
<svg version="1.0" xmlns="http://www.w3.org/2000/svg"
 width="1024.000000pt" height="1024.000000pt" viewBox="0 0 1024.000000 1024.000000"
 preserveAspectRatio="xMidYMid meet">
<metadata>
Created by potrace 1.14, written by Peter Selinger 2001-2017
</metadata>
<g transform="translate(0.000000,1024.000000) scale(0.100000,-0.100000)"
fill="#000000" stroke="none">
<path d="M4930 8954 c-14 -2 -68 -11 -120 -20 -52 -9 -154 -36 -227 -59 -723
-237 -1198 -921 -1169 -1685 10 -263 61 -462 181 -705 240 -482 692 -819 1233
-917 164 -29 420 -29 584 0 541 98 993 435 1233 917 120 243 171 442 181 705
32 841 -542 1569 -1374 1741 -73 16 -147 21 -297 24 -110 2 -211 2 -225 -1z"/>
<path d="M4880 1913 c-392 -42 -658 -195 -612 -352 25 -82 161 -173 332 -219
183 -50 242 -57 520 -57 278 0 337 7 520 57 232 63 366 183 332 297 -15 47
-89 119 -160 155 -107 54 -306 105 -478 121 l-72 7 -22 -99 c-44 -192 -95
-323 -126 -323 -26 0 -75 126 -114 295 -12 50 -23 98 -26 108 -5 17 -16 18
-94 10z"/>
</g>
</svg>
